<svg width="50" height="51" viewBox="0 0 50 51" fill="none" xmlns="http://www.w3.org/2000/svg">
<mask id="mask0_1_115" style="mask-type:alpha" maskUnits="userSpaceOnUse" x="0" y="0" width="50" height="51">
<rect y="0.5" width="50" height="50" fill="#D9D9D9"/>
</mask>
<g mask="url(#mask0_1_115)">
<path d="M5.3125 22.4792L12.7083 25.6562C13.6806 23.1562 14.7049 21.0035 15.7812 19.1979C16.8576 17.3924 18.2986 15.4132 20.1042 13.2604L17.6042 12.7396C16.9097 12.6007 16.2417 12.6354 15.6 12.8438C14.9569 13.0521 14.4097 13.3993 13.9583 13.8854L5.3125 22.4792ZM15.8854 27.1667L24.0104 35.3437C26.4062 34.5451 28.7417 33.425 31.0167 31.9833C33.2903 30.5431 35.3472 28.9028 37.1875 27.0625C40.2431 24.0417 42.509 20.5951 43.9854 16.7229C45.4604 12.8521 45.9201 9.21528 45.3646 5.8125C41.9618 5.25694 38.325 5.72569 34.4542 7.21875C30.5819 8.71181 27.1354 10.9687 24.1146 13.9896C22.2396 15.8646 20.5993 17.9306 19.1938 20.1875C17.7868 22.4444 16.684 24.7708 15.8854 27.1667ZM30.2604 20.9167C29.4618 20.1528 29.0625 19.2069 29.0625 18.0792C29.0625 16.95 29.4618 16.0035 30.2604 15.2396C31.0243 14.441 31.9701 14.0417 33.0979 14.0417C34.2271 14.0417 35.1736 14.441 35.9375 15.2396C36.7361 16.0035 37.1354 16.95 37.1354 18.0792C37.1354 19.2069 36.7361 20.1528 35.9375 20.9167C35.1736 21.7153 34.2271 22.1146 33.0979 22.1146C31.9701 22.1146 31.0243 21.7153 30.2604 20.9167ZM28.75 45.8646L37.2917 37.2708C37.7778 36.7847 38.125 36.2118 38.3333 35.5521C38.5417 34.8924 38.5764 34.2326 38.4375 33.5729L37.9167 31.0729C35.7639 32.8785 33.7847 34.3194 31.9792 35.3958C30.1736 36.4722 28.0208 37.4965 25.5208 38.4687L28.75 45.8646ZM8.54167 33.9896C9.75694 32.809 11.1979 32.2097 12.8646 32.1917C14.5313 32.175 15.9722 32.7743 17.1875 33.9896C18.4028 35.2049 19.0104 36.6458 19.0104 38.3125C19.0104 39.9792 18.4028 41.4201 17.1875 42.6354C16.3194 43.5035 14.9049 44.2417 12.9437 44.85C10.9812 45.4569 8.22917 46.0035 4.6875 46.4896C5.17361 42.9479 5.72083 40.2049 6.32917 38.2604C6.93611 36.316 7.67361 34.8924 8.54167 33.9896Z" fill="#45A29F"/>
</g>
</svg>
